<?xml version="1.0" encoding="UTF-8" standalone="no"?>
<!-- Created with Inkscape (http://www.inkscape.org/) -->

<svg
   xmlns:dc="http://purl.org/dc/elements/1.1/"
   xmlns:cc="http://creativecommons.org/ns#"
   xmlns:rdf="http://www.w3.org/1999/02/22-rdf-syntax-ns#"
   xmlns:svg="http://www.w3.org/2000/svg"
   xmlns="http://www.w3.org/2000/svg"
   xmlns:xlink="http://www.w3.org/1999/xlink"
   xmlns:sodipodi="http://sodipodi.sourceforge.net/DTD/sodipodi-0.dtd"
   xmlns:inkscape="http://www.inkscape.org/namespaces/inkscape"
   height="744.09448"
   id="svg2"
   inkscape:version="0.48.2 r9819"
   sodipodi:docname="mouse_icon.svg"
   sodipodi:version="0.32"
   width="460.41"
   version="1.1">
  <metadata
     id="metadata3155">
    <rdf:RDF>
      <cc:Work
         rdf:about="">
        <dc:title />
        <dc:description />
        <dc:subject>
          <rdf:Bag>
            <rdf:li />
            <rdf:li>11</rdf:li>
            <rdf:li>computer</rdf:li>
          </rdf:Bag>
        </dc:subject>
        <dc:publisher>
          <cc:Agent
             rdf:about="http://www.openclipart.org">
            <dc:title />
          </cc:Agent>
        </dc:publisher>
        <dc:creator>
          <cc:Agent>
            <dc:title />
          </cc:Agent>
        </dc:creator>
        <dc:rights>
          <cc:Agent>
            <dc:title />
          </cc:Agent>
        </dc:rights>
        <dc:date />
        <dc:format>image/svg+xml</dc:format>
        <dc:type
           rdf:resource="http://purl.org/dc/dcmitype/StillImage" />
        <cc:license
           rdf:resource="" />
        <dc:language>en</dc:language>
      </cc:Work>
    </rdf:RDF>
  </metadata>
  <defs
     id="defs3">
    <linearGradient
       id="linearGradient7601"
       inkscape:collect="always">
      <stop
         id="stop7603"
         offset="0"
         style="stop-color:#000000;stop-opacity:1;" />
      <stop
         id="stop7605"
         offset="1"
         style="stop-color:#000000;stop-opacity:0;" />
    </linearGradient>
    <linearGradient
       gradientTransform="matrix(0.755921,0,0,1.32289,-36,0)"
       gradientUnits="userSpaceOnUse"
       id="linearGradient7607"
       inkscape:collect="always"
       spreadMethod="reflect"
       x1="-526.86133"
       x2="1370.5586"
       xlink:href="#linearGradient7601"
       y1="45.132561"
       y2="471.384" />
    <linearGradient
       gradientTransform="matrix(0.323979,0,0,0.566975,399.6324,14.15086)"
       gradientUnits="userSpaceOnUse"
       id="linearGradient10869"
       inkscape:collect="always"
       spreadMethod="reflect"
       x1="-526.86133"
       x2="1370.5586"
       xlink:href="#linearGradient7601"
       y1="45.132561"
       y2="471.384" />
    <linearGradient
       gradientTransform="matrix(0.0889215,0,0,0.155616,635.7169,9.380527)"
       gradientUnits="userSpaceOnUse"
       id="linearGradient10877"
       inkscape:collect="always"
       spreadMethod="reflect"
       x1="-526.86133"
       x2="1370.5586"
       xlink:href="#linearGradient7601"
       y1="45.132561"
       y2="471.384" />
  </defs>
  <sodipodi:namedview
     bordercolor="#666666"
     borderopacity="1.0"
     gridtolerance="5.0000000mm"
     id="base"
     inkscape:current-layer="layer1"
     inkscape:cx="372.04724"
     inkscape:cy="359.14067"
     inkscape:document-units="px"
     inkscape:grid-bbox="true"
     inkscape:grid-points="true"
     inkscape:guide-bbox="true"
     inkscape:guide-points="true"
     inkscape:pageopacity="0.0"
     inkscape:pageshadow="2"
     inkscape:window-height="841"
     inkscape:window-width="992"
     inkscape:window-x="22"
     inkscape:window-y="29"
     inkscape:zoom="0.62906099"
     pagecolor="#ffffff"
     showgrid="true"
     showguides="true"
     height="2104.72px"
     width="524.41px"
     inkscape:window-maximized="0">
    <inkscape:grid
       id="GridFromPre046Settings"
       type="xygrid"
       originx="0px"
       originy="0.00000000mm"
       spacingx="10.000000mm"
       spacingy="10.000000mm"
       color="#0000ff"
       empcolor="#0000ff"
       opacity="0.2"
       empopacity="0.4"
       empspacing="5"
       units="mm"
       visible="true"
       enabled="true"
       snapvisiblegridlinesonly="true" />
  </sodipodi:namedview>
  <g
     id="layer1"
     inkscape:groupmode="layer"
     inkscape:label="Layer 1"
     style="display:inline"
     transform="translate(0,-308.26619)">
    <g
       id="g1317"
       transform="translate(-35.4375,283.4417)">
      <path
         d="m 70.29035,24.82601 0,602.34375 35.4375,0 0,-35.4375 35.4375,0 0,-35.40625 35.40625,0 0,-35.4375 35.4375,0 35.4375,0 0,70.84375 35.4375,0 0,70.875 35.4375,0 0,70.875 35.4375,0 0,35.4375 70.84375,0 0,-35.4375 35.4375,0 0,-70.875 -35.4375,0 0,-70.875 -35.40625,0 0,-70.84375 -35.4375,0 0,-70.875 141.71875,0 0,-35.4375 -35.4375,0 0,-35.4375 -35.4375,0 0,-35.4375 -35.40625,0 0,-35.40625 -35.4375,0 0,-35.4375 -35.4375,0 0,-35.4375 -35.4375,0 0,-35.4375 -35.4375,0 0,-35.4375 -35.4375,0 0,-35.4375 -35.4375,0 0,-35.437499 -35.40625,0 0,-35.406251 -35.4375,0 0,-35.4375 -35.4375,0 z"
         id="path6080"
         style="fill:url(#linearGradient7607);fill-opacity:1;fill-rule:nonzero;stroke:none;display:inline"
         inkscape:connector-curvature="0" />
      <path
         d="m 35.4375,24.8125 0,602.34375 35.4375,0 0,-35.4375 35.4375,0 0,-35.40625 -35.4375,0 0,-460.65625 35.4375,0 0,-35.40625 -35.4375,0 0,-35.4375 -35.4375,0 z m 70.875,70.84375 0,35.4375 35.40625,0 0,-35.4375 -35.40625,0 z m 35.40625,35.4375 0,35.4375 35.4375,0 0,-35.4375 -35.4375,0 z m 35.4375,35.4375 0,35.4375 35.4375,0 0,-35.4375 -35.4375,0 z m 35.4375,35.4375 0,35.4375 35.4375,0 0,-35.4375 -35.4375,0 z m 35.4375,35.4375 0,35.4375 35.4375,0 0,-35.4375 -35.4375,0 z m 35.4375,35.4375 0,35.4375 35.4375,0 0,-35.4375 -35.4375,0 z m 35.4375,35.4375 0,35.40625 35.4375,0 0,-35.40625 -35.4375,0 z m 35.4375,35.40625 0,35.4375 35.40625,0 0,-35.4375 -35.40625,0 z m 35.40625,35.4375 0,35.4375 -106.28125,0 0,35.4375 0,70.875 35.4375,0 0,-70.875 141.71875,0 0,-35.4375 -35.4375,0 0,-35.4375 -35.4375,0 z m -70.84375,141.75 0,70.84375 35.4375,0 0,-70.84375 -35.4375,0 z m 35.4375,70.84375 0,70.875 35.40625,0 0,-70.875 -35.40625,0 z m 35.40625,70.875 0,70.875 35.4375,0 0,-70.875 -35.4375,0 z m 0,70.875 -70.84375,0 0,35.4375 70.84375,0 0,-35.4375 z m -70.84375,0 0,-70.875 -35.4375,0 0,70.875 35.4375,0 z m -35.4375,-70.875 0,-70.875 -35.4375,0 0,70.875 35.4375,0 z m -35.4375,-70.875 0,-70.84375 -35.4375,0 0,70.84375 35.4375,0 z m -35.4375,-70.84375 0,-70.875 -35.4375,0 0,35.4375 -35.4375,0 0,35.4375 35.4375,0 35.4375,0 z m -70.875,0 -35.40625,0 0,35.4375 35.40625,0 0,-35.4375 z"
         id="rect1430"
         style="fill:#000000;fill-opacity:1;fill-rule:evenodd;stroke:none"
         inkscape:connector-curvature="0" />
      <path
         d="m 70.875,95.65625 0,460.65625 35.4375,0 0,-35.4375 35.40625,0 0,-35.4375 35.4375,0 0,-35.4375 35.4375,0 0,70.875 35.4375,0 0,70.84375 35.4375,0 0,70.875 35.4375,0 0,70.875 35.4375,0 35.40625,0 0,-70.875 -35.40625,0 0,-70.875 -35.4375,0 0,-70.84375 -35.4375,0 0,-106.3125 35.4375,0 35.4375,0 35.40625,0 0,-35.4375 -35.40625,0 0,-35.4375 -35.4375,0 0,-35.40625 -35.4375,0 0,-35.4375 -35.4375,0 0,-35.4375 -35.4375,0 0,-35.4375 -35.4375,0 0,-35.4375 -35.4375,0 0,-35.4375 -35.40625,0 0,-35.4375 -35.4375,0 z"
         id="rect3779"
         style="fill:#ffffff;fill-opacity:1;stroke:none"
         inkscape:connector-curvature="0" />
    </g>
  </g>
</svg>
